<svg width="356" height="605" viewBox="0 0 356 605" fill="none" xmlns="http://www.w3.org/2000/svg">
<path d="M75.4758 427.2C69.9424 427.2 64.8091 426.3 60.0758 424.5C55.4091 422.7 51.3424 420.167 47.8758 416.9C44.4758 413.633 41.8091 409.8 39.8758 405.4C38.0091 401 37.0758 396.2 37.0758 391C37.0758 385.8 38.0091 381 39.8758 376.6C41.8091 372.2 44.5091 368.367 47.9758 365.1C51.4424 361.833 55.5091 359.3 60.1758 357.5C64.8424 355.7 69.9091 354.8 75.3758 354.8C80.9091 354.8 85.9758 355.7 90.5758 357.5C95.2425 359.3 99.2758 361.833 102.676 365.1C106.142 368.367 108.842 372.2 110.776 376.6C112.709 380.933 113.676 385.733 113.676 391C113.676 396.2 112.709 401.033 110.776 405.5C108.842 409.9 106.142 413.733 102.676 417C99.2758 420.2 95.2425 422.7 90.5758 424.5C85.9758 426.3 80.9424 427.2 75.4758 427.2ZM75.3758 413.4C78.5091 413.4 81.3758 412.867 83.9758 411.8C86.6425 410.733 88.9758 409.2 90.9758 407.2C92.9758 405.2 94.5091 402.833 95.5758 400.1C96.7091 397.367 97.2758 394.333 97.2758 391C97.2758 387.667 96.7091 384.633 95.5758 381.9C94.5091 379.167 92.9758 376.8 90.9758 374.8C89.0424 372.8 86.7424 371.267 84.0758 370.2C81.4091 369.133 78.5091 368.6 75.3758 368.6C72.2425 368.6 69.3425 369.133 66.6758 370.2C64.0758 371.267 61.7758 372.8 59.7758 374.8C57.7758 376.8 56.2091 379.167 55.0758 381.9C54.0091 384.633 53.4758 387.667 53.4758 391C53.4758 394.267 54.0091 397.3 55.0758 400.1C56.2091 402.833 57.7424 405.2 59.6758 407.2C61.6758 409.2 64.0091 410.733 66.6758 411.8C69.3425 412.867 72.2425 413.4 75.3758 413.4ZM125.851 426V356H156.151C162.417 356 167.817 357.033 172.351 359.1C176.884 361.1 180.384 364 182.851 367.8C185.317 371.6 186.551 376.133 186.551 381.4C186.551 386.6 185.317 391.1 182.851 394.9C180.384 398.7 176.884 401.633 172.351 403.7C167.817 405.7 162.417 406.7 156.151 406.7H134.851L142.051 399.4V426H125.851ZM142.051 401.2L134.851 393.5H155.251C160.251 393.5 163.984 392.433 166.451 390.3C168.917 388.167 170.151 385.2 170.151 381.4C170.151 377.533 168.917 374.533 166.451 372.4C163.984 370.267 160.251 369.2 155.251 369.2H134.851L142.051 361.5V401.2ZM210.761 426V369.2H188.361V356H249.361V369.2H226.961V426H210.761ZM245.362 426L276.562 356H292.562L323.862 426H306.862L281.262 364.2H287.662L261.962 426H245.362ZM260.962 411L265.262 398.7H301.262L305.662 411H260.962ZM90.0535 548V478H119.254C126.787 478 132.687 479.533 136.954 482.6C141.22 485.667 143.354 490.1 143.354 495.9C143.354 499.7 142.454 502.9 140.654 505.5C138.854 508.1 136.354 510.067 133.154 511.4C130.02 512.667 126.487 513.3 122.554 513.3L124.354 511.3C129.154 511.3 133.254 512 136.654 513.4C140.054 514.8 142.62 516.833 144.354 519.5C146.154 522.167 147.054 525.5 147.054 529.5C147.054 535.367 144.92 539.933 140.654 543.2C136.387 546.4 129.92 548 121.254 548H90.0535ZM95.1535 543.6H121.254C127.987 543.6 133.12 542.467 136.654 540.2C140.187 537.867 141.954 534.167 141.954 529.1C141.954 524.1 140.187 520.467 136.654 518.2C133.12 515.867 127.987 514.7 121.254 514.7H94.5535V510.3H119.054C125.12 510.3 129.82 509.133 133.154 506.8C136.487 504.467 138.154 500.967 138.154 496.3C138.154 491.7 136.487 488.233 133.154 485.9C129.82 483.567 125.12 482.4 119.054 482.4H95.1535V543.6ZM165.249 548V478H170.349V548H165.249ZM194.741 548V478H199.041L231.541 534.1H229.241L261.641 478H265.841L265.941 548H260.941L260.841 485.7H262.241L231.541 538.7H229.041L198.241 485.7H199.741V548H194.741Z" fill="black"/>
<path d="M57 134.234L298 166.15M57 134.234L73.8017 36.9161M57 134.234L222.392 298M57 134.234L133.658 5M57 134.234L133.658 266.607M298 166.15L222.392 36.9161H73.8017M298 166.15L222.392 298M298 166.15L133.658 266.607M298 166.15L133.658 5M298 166.15L73.8017 36.9161M298 166.15L280.148 266.607M73.8017 36.9161L133.658 5M222.392 298L280.148 266.607M133.658 266.607H280.148" stroke="black" stroke-width="7"/>
</svg>
